<svg xmlns="http://www.w3.org/2000/svg" width="256" height="256" viewBox="0 0 256 256">
<!-- SVG created with Arrow, by QuiverAI (https://quiver.ai) -->
  <path d="m114.4 252.9c-58.4-5.27-110-52.69-111.7-110.9l6.38-0.88c5.18 52.83 48.28 99.15 105.4 105l-0.05 6.75z" fill="#424241"/>
  <path d="m142.3 252.9-0.78-6.85c55.11-6.18 97.76-47.98 104.8-105.3l6.97 1.29c-7.57 60.18-53.77 105-111 110.9z" fill="#424241"/>
  <path d="m246.2 114.6c-6.02-52.62-48.13-96.52-104.8-104.4l0.98-7.09c58.67 7.87 106.8 55.07 110.9 110.4l-7.1 1.1z" fill="#424241"/>
  <path d="m9.27 114.7-6.58-0.95c5.05-55.68 54.22-105.7 111.5-110.7l0.66 7.21c-53.86 4.24-100.2 50.02-105.6 104.4z" fill="#424241"/>
  <path d="m128 22.64c-2.51 0-4.99 0.09-7.45 0.28v0.04c-8.57 0.56-15.31 1.76-21.7 4.1l-2.34-7.84c-37.47 10.73-66.14 40.75-76.3 76.79l7.11 2.34c-1.96 6.79-3.21 11.98-3.65 18.34h12.56c5.68-43.62 41.56-78.77 84.78-80.88v-0.03c2.31-0.17 4.64-0.27 6.99-0.27 47.84 0 87.32 35.34 90.6 85.31h13.08c-0.7-47.26-38.23-92.76-72.51-101.6l-3.3 8.44c-6.51-2-11.75-3.25-17.26-4.01v-0.74c-3.49-0.2-6.5-0.32-10.61-0.32z" fill="#0E305B"/>
  <path d="m231.8 138.4h-13.21c-4.71 45.37-40.55 78.03-84.46 79.54v13.49c45.82-2.43 86.27-34.37 102.3-71.97l-8.44-3.1c2-6.37 3.02-11.36 3.84-17.96z" fill="#0E305B"/>
  <path d="m117.2 231.2v-13.27c-43.06-4.06-79.76-38.16-81.58-84.11h-12.65c0.14 8.4 1.59 15.98 4.02 22.89l-8.31 3.08c10.73 32.73 37.05 61.01 77.04 75.54l2.89-7.85c6.46 1.92 11.88 3.19 18.59 3.72z" fill="#0E305B"/>
  <path d="m127.7 22.64c-2.5 0-3.9 0.07-6.36 0.22v77.21l6.62 6.96 5.8-6.67v-77.54c-1.99-0.13-3.83-0.18-6.06-0.18z" fill="#424241"/>
  <path d="m127.9 147.7-6.52 6.92v76.81c2.26 0.15 4.05 0.15 6.52 0.15 2.08 0 3.84-0.08 6.23-0.22v-77.17l-6.23-6.49z" fill="#424241"/>
  <path d="m231.8 121.1-77.84-0.12-6.13 6.56 6.33 6.41 77.57-0.17c0.4-4.28 0.33-8.66 0.07-12.68z" fill="#424241"/>
  <path d="m23.17 121c-0.29 4.61-0.28 8.82-0.01 12.8h77.7l6.58-6.55-6.01-6.29-78.26 0.04z" fill="#424241"/>
  <path d="m100 62.72-4.39-8.03c-18.41 8.43-32.65 23.07-40.18 39.81l7.84 4.15c-1.95 4.77-3.23 7.51-4.26 12.11h9.16c6.68-20.57 21.29-35.93 42.41-42.84v-9.51c-4.28 1-7.2 2.21-10.58 4.31z" fill="#424241"/>
  <path d="m161.1 54.69-4.39 8.03c-4.39-2.18-7.44-3.35-11.8-4.31v9.71c20.89 6.11 37.65 21.34 42.42 42.64h9.16c-0.99-5.14-2.24-7.55-4.19-12.45l7.27-3.93c-8.13-17.31-21.72-31.26-38.47-39.69z" fill="#424241"/>
  <path d="m191.2 156.9c2.12-4.39 3.48-7.8 4.86-12.57h-8.66c-6.68 20.57-20.35 37.1-42.55 42.97v9.51c4.62-1.16 7.99-2.16 11.86-4.26l3.99 7.51c17.01-8.14 32-21.96 39.3-38.42l-8.8-4.74z" fill="#424241"/>
  <path d="m67.96 143.9h-8.84c0.93 4.84 2.14 7.79 4.16 12.78l-7.97 4.52c9.1 17.44 22.46 31.26 39.09 38.8l4.25-8.01c4.39 1.96 7.82 3.21 11.88 4.17v-9.24c-20.65-6.11-36.32-20.88-42.57-43.02z" fill="#424241"/>
  <path d="m155.5 88.81-27.67 28.15-27.68-28.15-10.73 10.55 28.21 28.35-28.6 28.07 11 11.41 27.8-29.48 27.8 29.48 11.31-11.7-28.6-27.78 28.21-28.03-11.05-10.87z" fill="#0E305B"/>
</svg>